<svg xmlns="http://www.w3.org/2000/svg" width="32" height="32" viewBox="0 0 32 32">
  <!-- Circular background -->
  <circle cx="16" cy="16" r="15" fill="#718096" />
  
  <!-- Simple blockchain icon -->
  <g fill="white">
    <!-- Center node -->
    <circle cx="16" cy="16" r="3" />
    
    <!-- Outer nodes -->
    <circle cx="16" cy="6" r="2" />
    <circle cx="26" cy="16" r="2" />
    <circle cx="16" cy="26" r="2" />
    <circle cx="6" cy="16" r="2" />
    
    <!-- Corner nodes (smaller) -->
    <circle cx="9" cy="9" r="1.5" />
    <circle cx="23" cy="9" r="1.5" />
    <circle cx="23" cy="23" r="1.5" />
    <circle cx="9" cy="23" r="1.5" />
    
    <!-- Connecting lines (spokes) -->
    <rect x="15.25" y="9" width="1.5" height="7" rx="0.75" />
    <rect x="15.25" y="16" width="1.5" height="7" rx="0.75" transform="rotate(180 16 19.5)" />
    
    <rect x="16" y="15.25" width="7" height="1.5" rx="0.75" />
    <rect x="9" y="15.25" width="7" height="1.5" rx="0.75" />
    
    <!-- Diagonal lines -->
    <rect x="11" y="10.25" width="7" height="1.5" rx="0.75" transform="rotate(-45 11 10.25)" />
    <rect x="21" y="20.25" width="7" height="1.5" rx="0.75" transform="rotate(-45 21 20.25)" />
    
    <rect x="10.25" y="21" width="7" height="1.5" rx="0.75" transform="rotate(-135 10.25 21)" />
    <rect x="20.25" y="11" width="7" height="1.5" rx="0.75" transform="rotate(-135 20.25 11)" />
  </g>
</svg>